<svg width="355" height="103" xmlns="http://www.w3.org/2000/svg" class="iconLeft">
 <!---->
 <defs>
  <!---->
 </defs>
 <defs>
  <!---->
 </defs>
 <defs>
  <!---->
 </defs>
 <!---->
 <g>
  <title>background</title>
  <rect fill="none" id="canvas_background" height="105" width="357" y="-1" x="-1"/>
 </g>
 <g>
  <title>Layer 1</title>
  <g stroke="null" id="svg_5">
   <g stroke="null" id="svg_6">
    <g stroke="null" transform="matrix(5.929452409134265,0,0,5.929452409134265,57.25468117166071,158.93775761675565) " fill="#488eff" id="e7ba3948-04a8-4d60-8ee0-1b5b9066c9d2">
     <path stroke="null" id="svg_2" d="m15.85166,-12.686355l-3.75,-4.35l-1.79,1.82l0,2.53l-1.4,0l0,-9.8l1.4,0l0,5.48l5.32,-5.48l1.6,0l-4.19,4.41l4.45,5.39l-1.64,0zm6.11,0.09l0,0q-1.11,0 -1.99,-0.49l0,0l0,0q-0.88,-0.49 -1.38,-1.36l0,0l0,0q-0.5,-0.86 -0.5,-1.95l0,0l0,0q0,-1.09 0.5,-1.95l0,0l0,0q0.5,-0.86 1.38,-1.35l0,0l0,0q0.88,-0.48 1.99,-0.48l0,0l0,0q1.1,0 1.98,0.48l0,0l0,0q0.87,0.49 1.37,1.35l0,0l0,0q0.5,0.86 0.5,1.95l0,0l0,0q0,1.09 -0.5,1.95l0,0l0,0q-0.5,0.87 -1.37,1.36l0,0l0,0q-0.88,0.49 -1.98,0.49l0,0zm0,-1.18l0,0q0.71,0 1.28,-0.33l0,0l0,0q0.57,-0.33 0.89,-0.92l0,0l0,0q0.32,-0.6 0.32,-1.37l0,0l0,0q0,-0.77 -0.32,-1.36l0,0l0,0q-0.32,-0.6 -0.89,-0.92l0,0l0,0q-0.57,-0.32 -1.28,-0.32l0,0l0,0q-0.72,0 -1.28,0.32l0,0l0,0q-0.57,0.32 -0.9,0.92l0,0l0,0q-0.33,0.59 -0.33,1.36l0,0l0,0q0,0.77 0.33,1.37l0,0l0,0q0.33,0.59 0.9,0.92l0,0l0,0q0.56,0.33 1.28,0.33l0,0zm9.64,-6.4l0,0q1.08,0 1.94,0.48l0,0l0,0q0.85,0.47 1.33,1.33l0,0l0,0q0.49,0.85 0.49,1.97l0,0l0,0q0,1.12 -0.49,1.98l0,0l0,0q-0.48,0.86 -1.33,1.34l0,0l0,0q-0.86,0.48 -1.94,0.48l0,0l0,0q-0.82,0 -1.51,-0.33l0,0l0,0q-0.68,-0.32 -1.13,-0.93l0,0l0,1.17l-1.29,0l0,-10.39l1.34,0l0,4.09l0,0q0.45,-0.59 1.12,-0.89l0,0l0,0q0.68,-0.3 1.47,-0.3l0,0zm-0.11,6.4l0,0q0.72,0 1.28,-0.33l0,0l0,0q0.57,-0.33 0.9,-0.92l0,0l0,0q0.33,-0.6 0.33,-1.37l0,0l0,0q0,-0.77 -0.33,-1.36l0,0l0,0q-0.33,-0.6 -0.9,-0.92l0,0l0,0q-0.56,-0.32 -1.28,-0.32l0,0l0,0q-0.7,0 -1.27,0.32l0,0l0,0q-0.58,0.32 -0.9,0.92l0,0l0,0q-0.32,0.59 -0.32,1.36l0,0l0,0q0,0.77 0.32,1.37l0,0l0,0q0.32,0.59 0.9,0.92l0,0l0,0q0.57,0.33 1.27,0.33l0,0zm7.02,-5.08l0,0q0.35,-0.65 1.03,-0.98l0,0l0,0q0.69,-0.34 1.67,-0.34l0,0l0,1.3l0,0q-0.11,-0.01 -0.31,-0.01l0,0l0,0q-1.09,0 -1.71,0.65l0,0l0,0q-0.63,0.65 -0.63,1.86l0,0l0,3.69l-1.34,0l0,-7.42l1.29,0l0,1.25zm10.1,-4.22l1.35,0l0,10.39l-1.29,0l0,-1.17l0,0q-0.45,0.61 -1.13,0.93l0,0l0,0q-0.69,0.33 -1.52,0.33l0,0l0,0q-1.07,0 -1.93,-0.48l0,0l0,0q-0.85,-0.48 -1.33,-1.34l0,0l0,0q-0.49,-0.86 -0.49,-1.98l0,0l0,0q0,-1.12 0.49,-1.97l0,0l0,0q0.48,-0.86 1.33,-1.33l0,0l0,0q0.86,-0.48 1.93,-0.48l0,0l0,0q0.8,0 1.47,0.3l0,0l0,0q0.68,0.3 1.12,0.89l0,0l0,-4.09zm-2.47,9.3l0,0q0.7,0 1.27,-0.33l0,0l0,0q0.57,-0.33 0.9,-0.92l0,0l0,0q0.32,-0.6 0.32,-1.37l0,0l0,0q0,-0.77 -0.32,-1.36l0,0l0,0q-0.33,-0.6 -0.9,-0.92l0,0l0,0q-0.57,-0.32 -1.27,-0.32l0,0l0,0q-0.72,0 -1.28,0.32l0,0l0,0q-0.57,0.32 -0.9,0.92l0,0l0,0q-0.33,0.59 -0.33,1.36l0,0l0,0q0,0.77 0.33,1.37l0,0l0,0q0.33,0.59 0.9,0.92l0,0l0,0q0.56,0.33 1.28,0.33l0,0z"/>
    </g>
    <g stroke="null" transform="matrix(0.9709478779407136,0,0,0.9709478779407136,-45.862043545936785,162.13966169149748) " fill="#488eff" id="4683da2d-d44e-4107-b72b-9811b2e36585">
     <path stroke="null" id="svg_3" d="m113.305255,-124.706007c-0.04,-0.004 -0.068,-0.032 -0.1,-0.04c-0.64,1.224 -1.004,2.796 -1.136,4.64c0.084,0.004 0.168,-0.016 0.252,0a2.326,2.326 0 0 0 1.776,-0.328a2.32,2.32 0 0 0 1.024,-1.476a2.365,2.365 0 0 0 -1.816,-2.796zm-25.388,24.776l5.752,9.2l5.416,-9.2l-11.168,0zm-14.2,-24.82c-0.032,0.008 -0.06,0.036 -0.096,0.04a2.364,2.364 0 0 0 -1.82,2.796c0.128,0.612 0.496,1.14 1.028,1.48c0.528,0.34 1.16,0.46 1.772,0.324c0.084,-0.016 0.168,0.004 0.252,0c-0.132,-1.84 -0.492,-3.416 -1.136,-4.64z"/>
     <path stroke="null" id="svg_4" d="m139.141255,-139.994007c0,-11.152 -6.76,-20.228 -15.064,-20.228c-6.984,0 -12.948,6.48 -14.568,15.424c-9.852,-2.784 -22.28,-2.784 -32.132,0c-1.612,-8.944 -7.58,-15.424 -14.564,-15.424c-8.304,0 -15.064,9.076 -15.064,20.228c0,6.328 2.176,12.208 5.884,16.016c-1.404,6.032 -0.5,20.676 0.428,25.64c4.308,22.96 17.188,34.116 39.38,34.116s35.076,-11.16 39.384,-34.116c0.928,-4.952 1.832,-19.604 0.428,-25.64c3.708,-3.808 5.888,-9.688 5.888,-16.016zm-20.108,18.912a6.325,6.325 0 0 1 -2.764,4.008a6.284,6.284 0 0 1 -3.436,1.02c-0.252,0 -0.496,-0.052 -0.744,-0.084c0.408,5.696 2.172,12.688 4.328,18.88c1.728,4.972 1.252,10.04 -1.332,14.276c-2.116,3.476 -5.5,6.008 -8.62,6.452c-0.74,0.1 -2.056,0.292 -3.612,0.292c-2.52,0 -5.668,-0.488 -8.032,-2.604c-0.524,-0.476 -0.956,-1.024 -1.364,-1.604c-0.4,0.584 -0.836,1.136 -1.36,1.604c-2.36,2.116 -5.508,2.604 -8.032,2.604c-1.56,0 -2.876,-0.188 -3.612,-0.292c-3.12,-0.444 -6.504,-2.98 -8.616,-6.452c-2.584,-4.24 -3.06,-9.312 -1.332,-14.276c2.152,-6.192 3.92,-13.18 4.324,-18.876c-0.248,0.028 -0.492,0.08 -0.74,0.08c-1.212,0 -2.4,-0.344 -3.436,-1.02a6.313,6.313 0 0 1 -2.764,-4c-0.572,-2.676 0.656,-5.308 2.844,-6.688c-0.352,-0.56 -0.452,-1.264 -0.148,-1.904a2.003,2.003 0 0 1 2.664,-0.956c10.136,4.812 4.096,25.852 1.028,34.68c-1.788,5.152 -0.16,9.032 0.972,10.892c1.716,2.82 4.192,4.344 5.76,4.576c4.02,0.568 6.772,0.136 8.408,-1.336c1.084,-0.98 1.748,-2.504 1.956,-4.552l-8.768,-14.268c-0.388,-0.616 -0.408,-1.508 -0.056,-2.148c0.352,-0.636 1.028,-1.152 1.752,-1.152l18.272,0c0.716,0 1.38,0.388 1.736,1.004a2.002,2.002 0 0 1 -0.012,2.008l-8.656,15.148c0.276,1.736 0.872,3.08 1.844,3.952c1.632,1.468 4.368,1.904 8.408,1.328c1.572,-0.224 4.048,-1.752 5.764,-4.572c1.132,-1.852 2.756,-5.736 0.968,-10.892c-3.076,-8.828 -9.12,-29.86 1.032,-34.676a2.003,2.003 0 0 1 2.664,0.956c0.308,0.64 0.204,1.344 -0.148,1.908c2.2,1.388 3.428,4.016 2.86,6.684z"/>
    </g>
   </g>
  </g>
 </g>
</svg>